<?xml version="1.0" encoding="UTF-8"?>
<svg version="1.1" xmlns="http://www.w3.org/2000/svg" width="1000" height="1000">
<path d="M0 0 C93.26329564 0 93.26329564 0 113.859375 19.83203125 C114.56578125 20.54746094 115.2721875 21.26289063 116 22 C116.56203125 22.54011719 117.1240625 23.08023437 117.703125 23.63671875 C132.37592741 38.96593601 134.46984809 62.56203812 134.21484375 82.65234375 C133.61496118 103.15640468 127.9630575 122.33924821 113.6640625 137.546875 C83.47905362 165.34186851 36.73380455 156 0 156 C0 104.52 0 53.04 0 0 Z M31 27 C31 60.99 31 94.98 31 130 C62.02273039 131.64898451 62.02273039 131.64898451 89.0546875 119.21875 C101.81863557 105.85221211 101.55065019 88.40131634 101.3125 71.1015625 C100.87721081 57.24848418 97.43974886 45.86904713 87.1875 36.1875 C71.43940408 23.2782449 50.05001901 27 31 27 Z " fill="#C51C1C" transform="translate(349,382)"/>
<path d="M0 0 C11.83332247 -0.03062353 23.66664358 -0.05098472 35.5 -0.0625 C36.37345943 -0.06335602 37.24691887 -0.06421204 38.14684677 -0.06509399 C67.11062644 -0.09017372 96.04640071 0.16533364 125 1 C123.84739624 4.06989688 122.66451727 6.74144931 120.7421875 9.3984375 C120.28980713 10.03056152 119.83742676 10.66268555 119.37133789 11.31396484 C118.87754639 11.99410645 118.38375488 12.67424805 117.875 13.375 C116.78690153 14.89521895 115.69971062 16.41608777 114.61328125 17.9375 C114.0301416 18.7521875 113.44700195 19.566875 112.84619141 20.40625 C109.5495458 25.03777115 106.30665943 29.7066324 103.0625 34.375 C102.3811499 35.35509033 101.6997998 36.33518066 100.99780273 37.3449707 C94.61864089 46.53166185 88.29827992 55.75773881 82 65 C80.77216553 66.80080178 79.54429987 68.6015823 78.31640625 70.40234375 C76.40743138 73.20217356 74.49857826 76.002086 72.59008789 78.80224609 C68.52384888 84.7677399 64.4522988 90.72956026 60.375 96.6875 C59.84575928 97.46109863 59.31651855 98.23469727 58.77124023 99.03173828 C56.1153666 102.91293081 53.45651037 106.79203414 50.79296875 110.66796875 C48.64502647 113.79369354 46.50692201 116.92583059 44.375 120.0625 C41.94969085 123.62810963 39.48249577 127.16149832 37 130.6875 C35.68700596 132.58299121 34.37449523 134.47881731 33.0625 136.375 C32.42836182 137.26106934 31.79422363 138.14713867 31.14086914 139.06005859 C30.56973389 139.89359863 29.99859863 140.72713867 29.41015625 141.5859375 C28.63877319 142.68494385 28.63877319 142.68494385 27.85180664 143.80615234 C26.73453895 146.03429547 26.73453895 146.03429547 27.71313477 148.5546875 C28.80053753 150.62097969 29.89206044 152.59347521 31.1796875 154.5390625 C31.60741455 155.19156982 32.0351416 155.84407715 32.47583008 156.51635742 C32.93755615 157.21220947 33.39928223 157.90806152 33.875 158.625 C34.87724822 160.15432828 35.87851603 161.68429944 36.87890625 163.21484375 C37.39598145 164.00487793 37.91305664 164.79491211 38.44580078 165.60888672 C40.93904961 169.4447144 43.37648524 173.31516345 45.8125 177.1875 C50.14992609 184.0732346 54.50395677 190.94805112 58.875 197.8125 C59.45999268 198.73119873 60.04498535 199.64989746 60.64770508 200.59643555 C61.8376447 202.46489671 63.02766777 204.33330475 64.21777344 206.20166016 C67.14654813 210.80023762 70.07317691 215.40018027 73 220 C74.16665613 221.83334004 75.3333228 223.66667337 76.5 225.5 C78.83333333 229.16666667 81.16666667 232.83333333 83.5 236.5 C84.3664917 237.86161255 84.3664917 237.86161255 85.25048828 239.25073242 C86.41556948 241.08159753 87.58060864 242.9124894 88.74560547 244.7434082 C91.68618321 249.36472713 94.62752092 253.9855592 97.5703125 258.60546875 C104.58103654 269.61340062 111.56998833 280.63468089 118.53222656 291.67333984 C120.51858477 294.82204139 122.50666714 297.96965243 124.49487305 301.1171875 C125.4990646 302.70695385 126.50313343 304.29679773 127.50708008 305.88671875 C129.96782116 309.78365741 132.42977398 313.67981885 134.89453125 317.57421875 C141.17021705 327.4941231 147.41301642 337.43388955 153.60864258 347.40405273 C156.34912196 351.80519041 159.09970472 356.19033093 161.98828125 360.49609375 C162.41987549 361.14344482 162.85146973 361.7907959 163.29614258 362.45776367 C164.40548167 364.10928633 165.53017294 365.75046929 166.65625 367.390625 C168.18831923 370.36568966 167.96584428 370.96195134 167 374 C162.45025975 368.27019975 158.14838448 362.44289744 154.0625 356.375 C152.92529736 354.69996506 151.78723786 353.02551161 150.6484375 351.3515625 C150.05514648 350.47918945 149.46185547 349.60681641 148.85058594 348.70800781 C145.65769925 344.03577838 142.42271384 339.39297758 139.1875 334.75 C138.52024902 333.79198486 137.85299805 332.83396973 137.16552734 331.84692383 C135.80069438 329.88785455 134.43562119 327.92895261 133.0703125 325.97021484 C123.7749182 312.63439326 114.48637553 299.29460651 105.29443359 285.88720703 C103.03252372 282.58947724 100.76595318 279.29495218 98.5 276 C97.58331263 274.6666809 96.66664593 273.33334759 95.75 272 C95.29625 271.34 94.8425 270.68 94.375 270 C90.25 264 90.25 264 88.8762207 262.00170898 C87.95556784 260.66262209 87.03483159 259.32359253 86.11401367 257.98461914 C83.88266308 254.73976998 81.65256052 251.49408198 79.42578125 248.24609375 C74.06622751 240.43293873 68.66831807 232.64752861 63.25 224.875 C55.98301847 214.44695924 48.81373301 203.95463767 41.66503906 193.4453125 C39.3049621 189.97925225 36.93675879 186.51885825 34.5625 183.0625 C34.14250732 182.45043701 33.72251465 181.83837402 33.28979492 181.20776367 C30.50579174 177.16050938 27.69375828 173.13367273 24.87109375 169.11328125 C24.14913818 168.08259521 23.42718262 167.05190918 22.68334961 165.98999023 C21.25664743 163.95451074 19.82661066 161.92136335 18.39282227 159.89086914 C16.56420384 157.28019442 14.77962969 154.64415405 13 152 C11.87658203 150.43572266 11.87658203 150.43572266 10.73046875 148.83984375 C9.876928 145.52153294 10.17326308 145.03156324 11.76953125 142.13671875 C12.76020891 140.63774776 13.77680176 139.15572526 14.8125 137.6875 C15.94987868 135.98611806 17.08656228 134.28427132 18.22265625 132.58203125 C18.8377002 131.67791504 19.45274414 130.77379883 20.08642578 129.84228516 C23.40372699 124.91500515 26.56391949 119.88767799 29.75 114.875 C31.11235906 112.74680521 32.47565158 110.61920771 33.83984375 108.4921875 C36.62629153 104.14488282 39.41014604 99.79593786 42.19140625 95.4453125 C48.4091819 85.72005487 54.63520537 76.0009819 60.91918945 66.31835938 C65.19330314 59.72241624 69.40854598 53.08923456 73.61572266 46.45043945 C79.02175754 37.93112932 84.51135497 29.46621015 90 21 C80.03933674 20.53460762 70.08129061 20.18031468 60.11193466 19.96375656 C55.48085063 19.85974806 50.85724461 19.71907026 46.23046875 19.49121094 C27.02322608 17.66315835 27.02322608 17.66315835 9.2244873 22.840271 C4.9571031 27.42863151 2.7711051 32.66311628 0.84655762 38.56103516 C-0.30435409 41.87685576 -1.92276411 44.38714782 -3.890625 47.2890625 C-4.44669434 48.17416504 -5.00276367 49.05926758 -5.57568359 49.97119141 C-6.40447021 51.28482666 -6.40447021 51.28482666 -7.25 52.625 C-12.67495904 61.26148936 -18.04192257 69.93164511 -23.375 78.625 C-25.91308965 82.75221273 -28.45461909 86.87728014 -31 91 C-31.50917969 91.825 -32.01835938 92.65 -32.54296875 93.5 C-33.81179455 95.54718113 -35.09040815 97.58768808 -36.375 99.625 C-37.04273438 100.68976563 -37.71046875 101.75453125 -38.3984375 102.8515625 C-38.92695312 103.56054688 -39.45546875 104.26953125 -40 105 C-40.66 105 -41.32 105 -42 105 C-55.45877865 79.66082797 -68.86281163 54.29785765 -81.77728271 28.67559814 C-82.50440957 27.23448407 -83.23343061 25.79432404 -83.9644165 24.35516357 C-84.97966825 22.3543123 -85.98697873 20.34966146 -86.9921875 18.34375 C-87.86399658 16.61415039 -87.86399658 16.61415039 -88.75341797 14.84960938 C-90 12 -90 12 -90 9 C-85.43899075 10.52033642 -83.38415735 14.27132991 -80.8125 18.0625 C-80.29985596 18.80346924 -79.78721191 19.54443848 -79.2590332 20.30786133 C-77.49543463 22.8648065 -75.74692761 25.43163885 -74 28 C-73.02111816 29.43327637 -73.02111816 29.43327637 -72.02246094 30.89550781 C-67.72886204 37.18234542 -63.45204588 43.4804374 -59.18115234 49.78271484 C-55.62661644 55.02579456 -52.06465922 60.26379938 -48.5 65.5 C-47.53839966 66.91575317 -47.53839966 66.91575317 -46.55737305 68.36010742 C-45.97125244 69.22095947 -45.38513184 70.08181152 -44.78125 70.96875 C-44.26626953 71.72607422 -43.75128906 72.48339844 -43.22070312 73.26367188 C-42.11457838 74.94268179 -42.11457838 74.94268179 -41 76 C-40.69932617 75.41847168 -40.39865234 74.83694336 -40.08886719 74.23779297 C-33.07998042 60.69946331 -25.91506597 47.25994621 -18.58251953 33.89453125 C-15.15177997 27.61948525 -11.75949339 21.32345575 -8.36352539 15.02954102 C-7.59576782 13.60919556 -7.59576782 13.60919556 -6.8125 12.16015625 C-6.36519531 11.33136963 -5.91789063 10.50258301 -5.45703125 9.64868164 C-3.67555104 6.41019659 -1.84026542 3.2054409 0 0 Z " fill="#282828" transform="translate(619,315)"/>
<path d="M0 0 C0.66 0 1.32 0 2 0 C3.67142873 2.21619069 5.22013956 4.43797568 6.75 6.75 C7.75032892 8.23372949 8.75167748 9.71677191 9.75390625 11.19921875 C10.28387207 11.98603027 10.81383789 12.7728418 11.35986328 13.58349609 C14.09119321 17.60771515 16.89074722 21.58360236 19.6875 25.5625 C26.80074458 35.70480614 33.87544029 45.87366956 40.94580078 56.04589844 C43.02373427 59.03413177 45.10340516 62.02114864 47.18359375 65.0078125 C53.40786071 73.9457661 59.62474247 82.88796876 65.78295898 91.87158203 C69.78597241 97.70452327 73.83042119 103.50833173 77.875 109.3125 C84.47777333 118.79051142 91.0197806 128.30824039 97.53125 137.84912109 C104.21955222 147.64365942 110.9679078 157.39519397 117.75 167.125 C124.40086365 176.66902095 130.97437696 186.26343279 137.515625 195.8828125 C140.6814243 200.53747781 143.86787674 205.1775871 147.0625 209.8125 C150.75795108 215.17580359 154.41843598 220.55964959 158 226 C154.17212978 233.25975386 149.77224014 240.07153316 145.29296875 246.9375 C141.49098712 252.76759571 137.74677419 258.63433303 134 264.5 C129.51791148 271.51171848 125.02932755 278.51869265 120.5 285.5 C109.1331023 303.02693924 97.92939531 320.65976924 86.72320557 338.28971863 C84.91653769 341.13127067 83.10890476 343.97220689 81.30102539 346.81298828 C80.68006485 347.7887381 80.05910431 348.76448792 79.41932678 349.76980591 C78.71676003 350.87375198 78.71676003 350.87375198 78 352 C87.90768259 352.58273024 97.81122548 353.02502804 107.73262882 353.2953043 C112.34236092 353.42515293 116.94028737 353.60052162 121.54321289 353.88598633 C141.21059174 355.8789796 141.21059174 355.8789796 159.0736084 349.66290283 C164.05946363 343.86602197 166.94801276 337.40696604 169.62265015 330.30621338 C171.95227524 324.71414275 175.30632038 319.79543334 178.625 314.75 C179.873714 312.77069828 181.11900543 310.78922907 182.359375 308.8046875 C182.96458984 307.84143555 183.56980469 306.87818359 184.19335938 305.88574219 C186.5503525 302.12092344 188.88500558 298.3425693 191.21704102 294.56225586 C193.80355177 290.36998316 196.40111819 286.18461056 199 282 C199.46229004 281.25314941 199.92458008 280.50629883 200.40087891 279.73681641 C201.65545947 277.71547139 202.91953448 275.70046709 204.1875 273.6875 C204.88230469 272.57761719 205.57710937 271.46773438 206.29296875 270.32421875 C206.85628906 269.55722656 207.41960937 268.79023438 208 268 C208.66 268 209.32 268 210 268 C210.3309668 268.64211426 210.66193359 269.28422852 211.00292969 269.94580078 C212.58267175 273.00689078 214.16635325 276.06592837 215.75 279.125 C216.26949219 280.13304687 216.78898438 281.14109375 217.32421875 282.1796875 C220.52814634 288.36138308 223.80989742 294.49173127 227.1673584 300.59156799 C233.61632112 312.31698418 239.75804487 324.17418907 245.73193359 336.14819336 C247.28398246 339.25553596 248.8468511 342.35729213 250.41015625 345.45898438 C251.40429166 347.44498935 252.39780653 349.4313051 253.390625 351.41796875 C254.08880341 352.80051094 254.08880341 352.80051094 254.80108643 354.21098328 C255.22283142 355.06070206 255.64457642 355.91042084 256.07910156 356.78588867 C256.45149963 357.53005539 256.82389771 358.27422211 257.20758057 359.04093933 C258 361 258 361 258 364 C254.96127876 362.68363741 253.31325167 361.47834269 251.44140625 358.75390625 C250.98048584 358.09221436 250.51956543 357.43052246 250.04467773 356.7487793 C249.55555908 356.02730713 249.06644043 355.30583496 248.5625 354.5625 C248.03664307 353.80171143 247.51078613 353.04092285 246.96899414 352.25708008 C245.30416097 349.84377459 243.65176545 347.42226257 242 345 C240.9980924 343.54379133 239.99550455 342.08805043 238.9921875 340.6328125 C233.95665828 333.31364441 228.9715005 325.96029853 223.98828125 318.60546875 C223.55583603 317.96741806 223.12339081 317.32936737 222.67784119 316.67198181 C220.51137821 313.47537396 218.34615311 310.27794251 216.18334961 307.07885742 C215.38789341 305.90411019 214.59240347 304.7293858 213.796875 303.5546875 C213.08885742 302.50780762 212.38083984 301.46092773 211.65136719 300.38232422 C210.20733788 298.14790158 210.20733788 298.14790158 209 297 C208.52280518 297.90951416 208.04561035 298.81902832 207.55395508 299.75610352 C199.34914001 315.38165754 191.14087614 330.98794973 182.3671875 346.30371094 C178.66387565 352.77734821 175.12077333 359.31943699 171.71264648 365.95336914 C170.3247137 368.63252757 169.14806364 370.85193636 167 373 C164.912323 373.24723816 164.912323 373.24723816 162.28076172 373.24291992 C161.28396393 373.24595627 160.28716614 373.24899261 159.26016235 373.25212097 C158.16110565 373.24497574 157.06204895 373.23783051 155.9296875 373.23046875 C154.77302582 373.23037308 153.61636414 373.2302774 152.4246521 373.23017883 C148.57466903 373.22640899 144.72493142 373.20734196 140.875 373.1875 C138.87970032 373.18235574 136.88440054 373.17721635 134.88909912 373.17279625 C104.25624079 373.09983369 73.62692586 372.57391462 43 372 C44.3898458 368.40215702 45.90597341 365.44573391 48.1328125 362.2890625 C49.08232788 360.93445923 49.08232788 360.93445923 50.05102539 359.55249023 C50.73543701 358.58641846 51.41984863 357.62034668 52.125 356.625 C53.58473046 354.54563964 55.04436317 352.46621065 56.50390625 350.38671875 C57.62563232 348.7941626 57.62563232 348.7941626 58.77001953 347.16943359 C62.21712958 342.27011428 65.64124484 337.35489522 69.0625 332.4375 C69.7217749 331.49052246 70.3810498 330.54354492 71.06030273 329.56787109 C77.5142743 320.28470719 83.87908616 310.94167148 90.23583984 301.59179688 C92.98291503 297.55596098 95.74132449 293.52791139 98.5 289.5 C108.37807398 275.07060533 118.22256577 260.61830174 128.05822754 246.15997314 C129.16074385 244.53933018 130.26347473 242.91883319 131.36621094 241.29833984 C132.68611825 239.35742902 134.00114376 237.4131846 135.31005859 235.46484375 C136.31846126 233.99405015 137.3544057 232.54072281 138.44384766 231.12890625 C139.75867968 229.48745269 139.75867968 229.48745269 141 227 C140.13166841 222.43757978 136.92163009 218.58856555 134.375 214.75 C133.37815438 213.22835688 132.38211018 211.70618854 131.38671875 210.18359375 C130.84450684 209.35585449 130.30229492 208.52811523 129.74365234 207.67529297 C126.52752683 202.74077836 123.35959842 197.77538524 120.1875 192.8125 C119.16462891 191.21329712 119.16462891 191.21329712 118.12109375 189.58178711 C111.97199682 179.96439647 105.84187498 170.33498018 99.71777344 160.70166016 C96.81326436 156.13353943 93.90650771 151.56684923 91 147 C89.8333228 145.16667337 88.66665613 143.33334004 87.5 141.5 C86.9225 140.5925 86.345 139.685 85.75 138.75 C84 136 82.25 133.25 80.5 130.5 C79.92233887 129.5922583 79.34467773 128.6845166 78.74951172 127.74926758 C77.58443052 125.91840247 76.41939136 124.0875106 75.25439453 122.2565918 C72.31381679 117.63527287 69.37247908 113.0144408 66.4296875 108.39453125 C60.4455573 98.99839699 54.47372881 89.59487409 48.53198242 80.171875 C45.34879835 75.12663055 42.14929773 70.09206741 38.94140625 65.0625 C32.78519301 55.40999639 26.68248045 45.72616958 20.63696289 36.00390625 C17.45739992 30.89861034 14.24747748 25.81687778 10.9765625 20.76953125 C10.33009766 19.76857422 9.68363281 18.76761719 9.01757812 17.73632812 C7.78593699 15.83357603 6.54797181 13.93489765 5.30273438 12.04101562 C4.75166016 11.18830078 4.20058594 10.33558594 3.6328125 9.45703125 C3.14699707 8.71428955 2.66118164 7.97154785 2.16064453 7.20629883 C0.89596555 4.80223826 0.40388791 2.67465512 0 0 Z " fill="#272727" transform="translate(370,235)"/>
<path d="M0 0 C0.66 0 1.32 0 2 0 C3.62677091 2.13770618 5.13979644 4.2675534 6.625 6.5 C7.04523438 7.12003906 7.46546875 7.74007812 7.8984375 8.37890625 C8.93837167 9.91517264 9.96997056 11.45707524 11 13 C10.01 13.99 9.02 14.98 8 16 C6.6583797 13.9007236 5.32663161 11.7962168 4 9.6875 C3.6184375 9.09259766 3.236875 8.49769531 2.84375 7.88476562 C0 3.33984375 0 3.33984375 0 0 Z " fill="#4F4F4F" transform="translate(370,235)"/>
<path d="M0 0 C2.90783477 3.53094222 5.71858548 7.02864881 8 11 C7.60546875 13.18359375 7.60546875 13.18359375 7 15 C5.84604289 13.58994275 4.70212534 12.17166542 3.5625 10.75 C2.92441406 9.96109375 2.28632812 9.1721875 1.62890625 8.359375 C0.08196045 6.1187149 -0.68485157 4.68162663 -1 2 C-0.67 1.34 -0.34 0.68 0 0 Z " fill="#4F4F4F" transform="translate(779,674)"/>
<path d="M0 0 C0.99 0 1.98 0 3 0 C5 3 5 3 4.625 5.1875 C4.41875 5.785625 4.2125 6.38375 4 7 C0 2.25 0 2.25 0 0 Z " fill="#585858" transform="translate(782,682)"/>
</svg>
